# xmcd
#
# Track frame offsets:
#	150
#	19935
#	31817
#	49557
#	62875
#	77162
#	102390
#	115950
#	130277
#	142032
#	154695
#	171895
#	192712
#
# Disc length: 2761 seconds
#
# Revision: 0
# Processed by: cddbd v1.5.2PL0 Copyright (c) Steve Scherf et al.
# Submitted via: EasyCDDAExtractor 10.0.6.1
#
DISCID=b70ac70d
DTITLE=Various Artist - Cedarhill Jan.1997
DYEAR=1997
DGENRE=Gospel
TTITLE0=Roarks - Bridges
TTITLE1=Tolers - Standing In Jesus Name
TTITLE2=Arnold Godwin - That's Just What He Is
TTITLE3=Conners - Untie The Ribbon
TTITLE4=Pat Cooper - One Step Of Faith
TTITLE5=Cockman Family - Father Forgive
TTITLE6=Sammy Easom - It's Just About Time
TTITLE7=Frances Simpson - I'll Gloryfy The Lord
TTITLE8=Lamberts - He Turned Water To Wine
TTITLE9=Soldiers Of The Cross - If He Were Here
TTITLE10=Covenant Keepers - Enoch Walked With God
TTITLE11=Devin - A Child's Request
TTITLE12=Tim Livingston - He Is I Am
EXTD=
EXTT0=
EXTT1=
EXTT2=
EXTT3=
EXTT4=
EXTT5=
EXTT6=
EXTT7=
EXTT8=
EXTT9=
EXTT10=
EXTT11=
EXTT12=
PLAYORDER=
